:version 1.10
:name ASF
:units
  mass 1
  length 1
  angle deg
:documentation
  ASF file generated by Kaydara
:root
  axis xyz
  order  tx ty tz rx ry rz
  position 0 0 0
  orientation 0 0 0
:bonedata
  begin
    id 1
    name RightUpLegDummy
    direction -1 2.30186e-007 8.31532e-007
    length 4.04083
    axis 0 0 0 xyz
  end
  begin
    id 2
    name RightUpLeg
    direction -0.000919234 -0.999985 0.00544864
    length 17.4221
    axis -3.80308 -0.00076134 -0.0523649 xyz
    dof rx ry rz
  end
  begin
    id 3
    name RightLeg
    direction -0.000919271 -0.999984 -0.00555045
    length 17.1239
    axis 4.00314 0.0181274 -0.183583 xyz
    dof rx ry rz
  end
  begin
    id 4
    name RightFoot
    direction -2.57843e-005 -4.04509e-007 1
    length 6.72091
    axis 8.18909e-005 -0.122003 -0.403008 xyz
    dof rx ry rz
  end
  begin
    id 5
    name RightToes
    direction 0.00116825 -0.014069 0.9999
    length 3.85082
    axis 0.000514414 0.540638 -0.356797 xyz
    dof rx ry rz
  end
  begin
    id 6
    name SpineDummy
    direction 0.0168869 0.966876 -0.254689
    length 6.99894
    axis 0 0 0 xyz
  end
  begin
    id 7
    name Spine
    direction -0.0132008 0.999903 0.00446247
    length 11.1999
    axis -0.00148109 0.00725429 0.756411 xyz
    dof rx ry rz
  end
  begin
    id 8
    name Spine1
    direction 0 0 0
    length 0
    axis -0.000934958 0.0245693 1.46543 xyz
    dof rx ry rz
  end
  begin
    id 9
    name HEadDummy
    direction -0.0255732 0.999672 0.00128215
    length 3.43865
    axis -0.000934958 0.0245693 1.46543 xyz
  end
  begin
    id 10
    name HEad
    direction -0.0472656 0.980052 0.19304
    length 5.12695
    axis -0.000934954 0.0245693 1.46543 xyz
    dof rx ry rz
  end
  begin
    id 11
    name LeftShoulder1Dummy
    direction 0.953098 0.301717 -0.023914
    length 3.68488
    axis -0.000934958 0.0245693 1.46543 xyz
  end
  begin
    id 12
    name LeftShoulder1
    direction 0.962466 0.271167 0.0112566
    length 3.13809
    axis -0.000934958 0.0245693 1.46543 xyz
    dof rx ry rz
  end
  begin
    id 13
    name LeftArm
    direction 0.999943 0.00455037 -0.00961766
    length 11.3419
    axis -23.1648 0.685459 1.22814 xyz
    dof rx ry rz
  end
  begin
    id 14
    name LeftForeArm
    direction 0.999332 0.0131969 0.0340885
    length 8.70632
    axis -9.90633 0.618216 0.0826942 xyz
    dof rx ry rz
  end
  begin
    id 15
    name LeftHand
    direction 0.994373 -0.0366703 0.0993905
    length 5.32135
    axis 0.00675269 0.680415 0.445699 xyz
    dof rx ry rz
  end
  begin
    id 16
    name RightShoulderDummy
    direction -0.967298 0.252589 -0.0230903
    length 3.68488
    axis -0.000934958 0.0245693 1.46543 xyz
  end
  begin
    id 17
    name RightShoulder
    direction -0.975062 0.221602 0.0120823
    length 3.13809
    axis 0.216257 0.0246515 1.45863 xyz
    dof rx ry rz
  end
  begin
    id 18
    name RightArm
    direction -0.99886 -0.00851186 -0.0469687
    length 10.3947
    axis -23.196 0.23503 -0.532632 xyz
    dof rx ry rz
  end
  begin
    id 19
    name RightForeArm
    direction -0.99909 0.00114866 0.0426317
    length 8.68355
    axis -9.91764 -0.134943 0.610517 xyz
    dof rx ry rz
  end
  begin
    id 20
    name RightHand
    direction -0.992888 -0.0489538 0.10852
    length 5.28593
    axis -0.00275396 -0.197403 0.246414 xyz
    dof rx ry rz
  end
  begin
    id 21
    name LeftUpLegDummy
    direction 1 -2.30186e-007 -8.31532e-007
    length 4.04083
    axis 0 0 0 xyz
  end
  begin
    id 22
    name LeftUpLeg
    direction -0.000920097 -1 2.79241e-006
    length 17.4221
    axis -3.48782 0.00143434 -0.0532288 xyz
    dof rx ry rz
  end
  begin
    id 23
    name LeftLeg
    direction -0.000920097 -1 2.7912e-006
    length 17.1239
    axis 3.68162 -0.00806512 -0.0529896 xyz
    dof rx ry rz
  end
  begin
    id 24
    name LeftFoot
    direction -2.57845e-005 -3.987e-007 1
    length 6.72091
    axis 3.02372e-005 -0.00147829 -0.214229 xyz
    dof rx ry rz
  end
  begin
    id 25
    name LeftToes
    direction 0.00813577 -0.00488255 0.999955
    length 3.85048
    axis 3.89895e-005 -0.0014783 -0.214229 xyz
    dof rx ry rz
  end
:hierarchy
  begin
    root RightUpLegDummy SpineDummy LeftUpLegDummy
    RightUpLegDummy RightUpLeg
    RightUpLeg RightLeg
    RightLeg RightFoot
    RightFoot RightToes
    SpineDummy Spine
    Spine Spine1
    Spine1 HEadDummy LeftShoulder1Dummy RightShoulderDummy
    HEadDummy HEad
    LeftShoulder1Dummy LeftShoulder1
    LeftShoulder1 LeftArm
    LeftArm LeftForeArm
    LeftForeArm LeftHand
    RightShoulderDummy RightShoulder
    RightShoulder RightArm
    RightArm RightForeArm
    RightForeArm RightHand
    LeftUpLegDummy LeftUpLeg
    LeftUpLeg LeftLeg
    LeftLeg LeftFoot
    LeftFoot LeftToes
  end

:SAMPLES-PER-SECOND 30
:FULLY-SPECIFIED
:DEGREES
98
root  -43.073 33.267 27.7789 -164.786 -0.0479889 176.878
RightUpLeg  -1.74552 -17.8086 -0.490292
RightLeg  11.4519 -8.23587 -1.11708
RightFoot  -12.3195 0.153323 2.01131
RightToes  -23.1361 -0.0996221 -0.201546
Spine  -0.885137 1.9893 -1.87679
Spine1  -1.82392 4.41807 -3.27719
HEad  -43.4932 7.82099 -7.14259
LeftShoulder1  -1.94126e-019 -3.10601e-018 -2.51263e-017
LeftArm  -22.5811 31.0978 -80.5968
LeftForeArm  32.8082 -11.2212 -1.93084
LeftHand  -0.401218 -1.145 7.27236
RightShoulder  -4.96962e-017 0 -2.36833e-017
RightArm  -17.6049 -20.9359 78.7855
RightForeArm  55.8789 15.0366 1.12565
RightHand  -0.367412 -0.535232 -8.56747
LeftUpLeg  -45.0874 3.62438 -4.96986
LeftLeg  20.9856 15.0277 4.61525
LeftFoot  2.96669 -0.0216782 1.06135
LeftToes  -25.4538 1.46665e-006 1.03344e-007
99
root  -43.2308 33.0408 26.7243 -164.64 0.918625 177.22
RightUpLeg  -1.16659 -16.671 -1.10615
RightLeg  13.4688 -8.35898 -1.43409
RightFoot  -12.4933 0.162878 2.07972
RightToes  -25.5307 -0.114387 -0.219735
Spine  -0.865116 2.13943 -2.03307
Spine1  -1.76747 4.84336 -3.64558
HEad  -44.9485 9.41911 -8.22943
LeftShoulder1  -1.94126e-019 -3.10601e-018 -2.51263e-017
LeftArm  -24.0891 32.0721 -80.5735
LeftForeArm  35.2413 -9.30741 -1.62561
LeftHand  -0.480591 -1.77124 7.97172
RightShoulder  -4.96962e-017 0 -2.36833e-017
RightArm  -16.2333 -20.1358 78.7765
RightForeArm  54.7882 15.5144 1.09967
RightHand  -0.365721 -0.603664 -8.62137
LeftUpLeg  -45.5572 3.28898 -4.43671
LeftLeg  22.5236 15.6619 5.26014
LeftFoot  2.77119 -0.0219714 1.06992
LeftToes  -24.1705 1.46665e-006 1.03344e-007
100
root  -43.4406 32.8853 25.5369 -164.49 1.90279 177.653
RightUpLeg  -0.83678 -15.0085 -1.80041
RightLeg  16.3593 -8.51843 -1.90676
RightFoot  -10.9023 0.125484 1.90937
RightToes  -33.0405 -0.165409 -0.272533
Spine  -0.923008 2.30813 -2.10568
Spine1  -1.86503 5.31555 -3.85806
HEad  -45.8702 11.0897 -9.72877
LeftShoulder1  -1.94126e-019 -3.10601e-018 -2.51263e-017
LeftArm  -25.2618 33.1928 -80.8136
LeftForeArm  36.3266 -8.15507 -1.41864
LeftHand  -0.490026 -1.59891 8.31181
RightShoulder  -4.96962e-017 0 -2.36833e-017
RightArm  -15.6511 -20.0271 78.6489
RightForeArm  54.2855 17.0519 1.28779
RightHand  -0.363279 -0.764457 -8.67546
LeftUpLeg  -45.4152 3.34374 -4.33652
LeftLeg  24.6153 14.7147 5.54626
LeftFoot  5.00959 -0.0671464 1.69644
LeftToes  -19.4682 1.46665e-006 1.03344e-007
101
root  -43.7461 32.8273 24.1914 -164.459 2.89853 177.605
RightUpLeg  -0.797156 -13.5121 -3.25424
RightLeg  20.1555 -8.35198 -2.45952
RightFoot  -8.20702 0.0666388 1.5267
RightToes  -41.9237 -0.23403 -0.325729
Spine  -1.1029 2.43361 -2.31088
Spine1  -2.22523 5.67376 -4.32041
HEad  -45.5215 12.7429 -11.0198
LeftShoulder1  -1.94126e-019 -3.10601e-018 -2.51263e-017
LeftArm  -27.1175 34.3677 -81.1002
LeftForeArm  37.1534 -7.22916 -1.25342
LeftHand  -0.490476 -1.52629 8.40103
RightShoulder  -4.96962e-017 0 -2.36833e-017
RightArm  -16.2095 -20.4763 78.705
RightForeArm  54.398 18.2453 1.47684
RightHand  -0.358748 -0.752578 -8.79839
LeftUpLeg  -44.5274 1.99843 -4.2233
LeftLeg  26.2669 14.9751 6.13094
LeftFoot  9.00964 -0.218841 2.93868
LeftToes  -13.011 1.46665e-006 1.03344e-007
102
root  -44.1331 32.8811 22.7473 -164.692 3.13489 177.22
RightUpLeg  -1.2761 -13.3551 -5.21316
RightLeg  25.2661 -7.86428 -3.10174
RightFoot  -3.20654 0.00497961 0.79548
RightToes  -56.1202 -0.358292 -0.386991
Spine  -1.18212 2.35915 -2.63402
Spine1  -2.41857 5.53589 -4.95655
HEad  -44.3386 13.869 -11.5077
LeftShoulder1  -1.94126e-019 -3.10601e-018 -2.51263e-017
LeftArm  -27.5528 35.079 -81.014
LeftForeArm  36.8748 -6.85605 -1.18748
LeftHand  -0.490542 -1.49316 8.44003
RightShoulder  -4.96962e-017 0 -2.36833e-017
RightArm  -17.689 -21.5924 79.0918
RightForeArm  53.8127 19.7266 1.68596
RightHand  -0.351821 -0.858409 -8.96824
LeftUpLeg  -43.6746 -0.0739882 -4.23441
LeftLeg  29.8342 16.3539 7.86744
LeftFoot  7.73892 -0.182784 2.86347
LeftToes  -13.3036 1.46665e-006 1.03344e-007
103
root  -44.5523 33.0448 21.2391 -165.445 3.00095 176.681
RightUpLeg  -2.80463 -14.2775 -7.51032
RightLeg  32.6462 -7.02202 -3.88178
RightFoot  5.20665 0.0426948 -0.377336
RightToes  -72.0752 -0.510943 -0.417128
Spine  -0.998681 2.32201 -2.99359
Spine1  -2.10553 5.3424 -5.59178
HEad  -42.9839 14.077 -11.2321
LeftShoulder1  -1.94126e-019 -3.10601e-018 -2.51263e-017
LeftArm  -25.4579 34.876 -80.5674
LeftForeArm  35.0223 -7.31873 -1.27474
LeftHand  -0.401792 -0.82626 7.62894
RightShoulder  -4.96962e-017 0 -2.36833e-017
RightArm  -19.8383 -23.1029 79.6326
RightForeArm  52.6429 21.4611 1.98999
RightHand  -0.345927 -0.955677 -8.99958
LeftUpLeg  -41.5619 -1.00823 -5.30556
LeftLeg  32.1874 16.59 8.80947
LeftFoot  4.86991 -0.0762741 1.95512
LeftToes  -9.77955 1.46665e-006 1.03344e-007
104
root  -44.9487 33.2447 19.7881 -166.101 3.20166 176.73
RightUpLeg  -6.33159 -13.9961 -8.63637
RightLeg  42.0615 -6.97252 -5.5168
RightFoot  15.4043 0.350707 -2.0119
RightToes  -70.2095 -0.492738 -0.415816
Spine  -0.836128 2.45695 -3.1569
Spine1  -1.80995 5.49149 -5.83841
HEad  -41.4983 14.0523 -10.7609
LeftShoulder1  -1.94126e-019 -3.10601e-018 -2.51263e-017
LeftArm  -25.4274 33.4405 -80.3671
LeftForeArm  36.3675 -6.96844 -1.20932
LeftHand  -0.455762 -1.40605 7.94686
RightShoulder  -4.96962e-017 0 -2.36833e-017
RightArm  -19.8514 -24.4613 79.679
RightForeArm  51.0797 22.9152 2.33372
RightHand  -0.334561 -0.990201 -8.76497
LeftUpLeg  -38.3396 0.345002 -6.5642
LeftLeg  31.8115 15.8193 8.28716
LeftFoot  1.80054 -0.0108105 0.849544
LeftToes  -6.95789 1.46665e-006 1.03344e-007
105
root  -45.31 33.4655 18.498 -166.338 3.03204 176.885
RightUpLeg  -11.5887 -13.8257 -8.54306
RightLeg  52.1435 -8.08982 -9.07399
RightFoot  23.5765 1.08177 -4.57763
RightToes  -48.1834 -0.286929 -0.356532
Spine  -0.686867 2.33729 -3.18095
Spine1  -1.51232 5.13316 -5.80331
HEad  -40.3204 14.3872 -10.3634
LeftShoulder1  -1.94126e-019 -3.10601e-018 -2.51263e-017
LeftArm  -23.7876 31.6089 -80.2376
LeftForeArm  35.9544 -7.80947 -1.35866
LeftHand  -0.462308 -1.53731 7.9162
RightShoulder  -4.96962e-017 0 -2.36833e-017
RightArm  -17.8192 -24.7607 79.3398
RightForeArm  50.9057 23.9091 2.53585
RightHand  -0.341477 -0.737337 -8.48799
LeftUpLeg  -35.3825 0.71653 -7.2523
LeftLeg  30.7442 15.5605 7.79936
LeftFoot  -0.473949 -0.000276157 0.0946999
LeftToes  -5.00012 1.46665e-006 1.03344e-007
